<svg viewBox="0 0 24 24" height="25px" width="25px" xmlns="http://www.w3.org/2000/svg" fill-rule="evenodd"
    clip-rule="evenodd" stroke-linejoin="round" stroke-miterlimit="1.414">
    <path fill="none" d="M0 0h24v24H0z" />
    <path
        d="M2.093 9.075a3.995 3.995 0 013.562-3.716A63.535 63.535 0 0112 5.048c2.209 0 4.34.109 6.345.312a3.994 3.994 0 013.562 3.715 45.969 45.969 0 010 5.85 3.995 3.995 0 01-3.562 3.716 63.535 63.535 0 01-6.345.311 63.23 63.23 0 01-6.345-.312 3.994 3.994 0 01-3.562-3.715 45.969 45.969 0 010-5.85z"
        fill="red" />
    <path d="M15.055 12l-4.909 2.995v-5.99L15.055 12z" fill="#fff" />
</svg>