<?xml version="1.0" ?>
<!DOCTYPE svg PUBLIC '-//W3C//DTD SVG 1.1//EN' 'http://www.w3.org/Graphics/SVG/1.1/DTD/svg11.dtd'><svg height="25px"
    id="Untitled-P%E1gina%201" style="background-color:#ffffff00" version="1.1" viewBox="0 0 512 512" width="25px"
    xml:space="preserve" xmlns="http://www.w3.org/2000/svg" xmlns:xlink="http://www.w3.org/1999/xlink">
    <g>
        <g>
            <path
                d="M 352.4336 256.2294 L 189.7003 351.8551 L 189.7003 160.6881 L 352.4336 256.2294 ZM 504.5 344.8796 L 504.5 167.1546 C 504.5 167.1546 504.5 81.5 418.8177 81.5 L 93.1017 81.5 C 93.1017 81.5 7.5 81.5 7.5 167.1546 L 7.5 344.8796 C 7.5 344.8796 7.5 430.5 93.1017 430.5 L 418.8177 430.5 C 418.8177 430.5 504.5 430.5 504.5 344.8796 L 504.5 344.8796 Z"
                fill="none" stroke="#ff001b" stroke-width="12" />
        </g>
        <g>
            <path
                d="M 352.4336 256.2294 L 189.7003 351.8551 L 189.7003 160.6881 L 352.4336 256.2294 ZM 504.5 344.8796 L 504.5 167.1546 C 504.5 167.1546 504.5 81.5 418.8177 81.5 L 93.1017 81.5 C 93.1017 81.5 7.5 81.5 7.5 167.1546 L 7.5 344.8796 C 7.5 344.8796 7.5 430.5 93.1017 430.5 L 418.8177 430.5 C 418.8177 430.5 504.5 430.5 504.5 344.8796 L 504.5 344.8796 Z"
                fill="none" stroke="#ff001b" stroke-width="12" />
        </g>
        <path
            d="M 352.4336 256.2294 L 189.7003 351.8551 L 189.7003 160.6881 L 352.4336 256.2294 ZM 504.5 344.8796 L 504.5 167.1546 C 504.5 167.1546 504.5 81.5 418.8177 81.5 L 93.1017 81.5 C 93.1017 81.5 7.5 81.5 7.5 167.1546 L 7.5 344.8796 C 7.5 344.8796 7.5 430.5 93.1017 430.5 L 418.8177 430.5 C 418.8177 430.5 504.5 430.5 504.5 344.8796 L 504.5 344.8796 Z"
            fill="none" stroke="#ffffff" stroke-width="4" />
    </g>
</svg>